<mxfile host="app.diagrams.net" modified="2024-03-14T19:43:06.576Z" agent="Mozilla/5.0 (Windows NT 10.0; Win64; x64) AppleWebKit/537.36 (KHTML, like Gecko) Chrome/122.0.0.0 Safari/537.36" etag="SFpKeyJE_ll6KzS9qra4" version="24.0.4" type="device">
  <diagram name="Page-1" id="9f46799a-70d6-7492-0946-bef42562c5a5">
    <mxGraphModel dx="2534" dy="2438" grid="1" gridSize="10" guides="1" tooltips="1" connect="1" arrows="1" fold="1" page="1" pageScale="1" pageWidth="1100" pageHeight="850" background="none" math="0" shadow="0">
      <root>
        <mxCell id="0" />
        <mxCell id="1" parent="0" />
        <mxCell id="fb5ipnyISE7amrQCMdho-208" value="" style="rounded=1;whiteSpace=wrap;html=1;fillColor=#e1d5e7;strokeColor=#9673a6;" parent="1" vertex="1">
          <mxGeometry x="-310" y="-1200" width="590" height="550" as="geometry" />
        </mxCell>
        <mxCell id="fb5ipnyISE7amrQCMdho-191" value="" style="rounded=1;whiteSpace=wrap;html=1;fillColor=#fff2cc;strokeColor=#d6b656;" parent="1" vertex="1">
          <mxGeometry x="600" y="-1620" width="280" height="420" as="geometry" />
        </mxCell>
        <mxCell id="fb5ipnyISE7amrQCMdho-187" value="" style="rounded=1;whiteSpace=wrap;html=1;fillColor=#f5f5f5;fontColor=#333333;strokeColor=#666666;" parent="1" vertex="1">
          <mxGeometry x="-180" y="-650" width="380" height="290" as="geometry" />
        </mxCell>
        <mxCell id="fb5ipnyISE7amrQCMdho-183" value="" style="rounded=1;whiteSpace=wrap;html=1;fillColor=#f5f5f5;fontColor=#333333;strokeColor=#666666;" parent="1" vertex="1">
          <mxGeometry x="580" y="-650" width="260" height="310" as="geometry" />
        </mxCell>
        <mxCell id="fb5ipnyISE7amrQCMdho-172" value="" style="rounded=1;whiteSpace=wrap;html=1;fillColor=#ffe6cc;strokeColor=#d79b00;" parent="1" vertex="1">
          <mxGeometry x="980" y="-890" width="570" height="370" as="geometry" />
        </mxCell>
        <mxCell id="fb5ipnyISE7amrQCMdho-171" value="" style="rounded=1;whiteSpace=wrap;html=1;fillColor=#dae8fc;strokeColor=#6c8ebf;" parent="1" vertex="1">
          <mxGeometry x="977.5" y="-1440" width="572.5" height="550" as="geometry" />
        </mxCell>
        <mxCell id="fb5ipnyISE7amrQCMdho-168" value="" style="rounded=1;whiteSpace=wrap;html=1;fillColor=#f8cecc;strokeColor=#b85450;" parent="1" vertex="1">
          <mxGeometry x="110" y="-1487.5" width="340" height="287.5" as="geometry" />
        </mxCell>
        <mxCell id="fb5ipnyISE7amrQCMdho-167" value="" style="rounded=1;whiteSpace=wrap;html=1;fillColor=#d5e8d4;strokeColor=#82b366;" parent="1" vertex="1">
          <mxGeometry x="280" y="-1200" width="600" height="550" as="geometry" />
        </mxCell>
        <mxCell id="fb5ipnyISE7amrQCMdho-24" value="&lt;b&gt;Extends&lt;/b&gt;" style="endArrow=block;endSize=16;endFill=0;html=1;rounded=0;exitX=0.5;exitY=0;exitDx=0;exitDy=0;" parent="1" edge="1">
          <mxGeometry width="160" relative="1" as="geometry">
            <mxPoint x="740.5" y="-1400" as="sourcePoint" />
            <mxPoint x="740" y="-1515" as="targetPoint" />
          </mxGeometry>
        </mxCell>
        <mxCell id="fb5ipnyISE7amrQCMdho-25" value="&lt;b style=&quot;border-color: var(--border-color);&quot;&gt;&lt;font style=&quot;border-color: var(--border-color); font-size: 14px;&quot;&gt;threading.Thread&lt;/font&gt;&lt;/b&gt;" style="shape=module;align=left;spacingLeft=20;align=center;verticalAlign=middle;whiteSpace=wrap;html=1;" parent="1" vertex="1">
          <mxGeometry x="630" y="-1570" width="210" height="55" as="geometry" />
        </mxCell>
        <mxCell id="fb5ipnyISE7amrQCMdho-26" value="&lt;font style=&quot;font-size: 14px;&quot;&gt;Server&lt;/font&gt;" style="shape=module;align=left;spacingLeft=20;align=center;verticalAlign=middle;whiteSpace=wrap;html=1;fontStyle=1" parent="1" vertex="1">
          <mxGeometry x="190" y="-1510" width="160" height="60" as="geometry" />
        </mxCell>
        <mxCell id="fb5ipnyISE7amrQCMdho-35" value="&lt;font style=&quot;font-size: 14px;&quot;&gt;Auth Server&lt;/font&gt;" style="shape=folder;fontStyle=1;spacingTop=10;tabWidth=40;tabHeight=14;tabPosition=left;html=1;whiteSpace=wrap;" parent="1" vertex="1">
          <mxGeometry x="-100" y="-1240" width="110" height="70" as="geometry" />
        </mxCell>
        <mxCell id="fb5ipnyISE7amrQCMdho-36" value="&lt;font style=&quot;font-size: 14px;&quot;&gt;Msg Server&lt;/font&gt;" style="shape=folder;fontStyle=1;spacingTop=10;tabWidth=40;tabHeight=14;tabPosition=left;html=1;whiteSpace=wrap;" parent="1" vertex="1">
          <mxGeometry x="480" y="-1235" width="110" height="70" as="geometry" />
        </mxCell>
        <mxCell id="fb5ipnyISE7amrQCMdho-37" value="&lt;p style=&quot;margin:0px;margin-top:4px;text-align:center;&quot;&gt;&lt;i&gt;&amp;lt;&amp;lt;Interface&amp;gt;&amp;gt;&lt;/i&gt;&lt;br&gt;&lt;b&gt;server_interface&lt;/b&gt;&lt;/p&gt;&lt;hr size=&quot;1&quot;&gt;&lt;p style=&quot;margin:0px;margin-left:4px;&quot;&gt;&lt;b&gt;+ server_ip_address: str&lt;br&gt;+ server_port: int&lt;/b&gt;&lt;/p&gt;&lt;p style=&quot;margin:0px;margin-left:4px;&quot;&gt;&lt;b&gt;+ custom_socket: CustomSocket&lt;/b&gt;&lt;/p&gt;&lt;hr size=&quot;1&quot;&gt;&lt;p style=&quot;margin:0px;margin-left:4px;&quot;&gt;&lt;b&gt;+ setup_server()&lt;/b&gt;&lt;/p&gt;&lt;p style=&quot;margin:0px;margin-left:4px;&quot;&gt;&lt;b&gt;+ cleanup()&lt;/b&gt;&lt;/p&gt;&lt;p style=&quot;margin:0px;margin-left:4px;&quot;&gt;&lt;b&gt;+ add_new_connection()&lt;/b&gt;&lt;/p&gt;&lt;p style=&quot;margin:0px;margin-left:4px;&quot;&gt;&lt;b&gt;&amp;lt;&amp;lt;abstract&amp;gt;&amp;gt; handle_peer()&lt;br&gt;&amp;lt;&amp;lt;abstract&amp;gt;&amp;gt; run()&lt;/b&gt;&lt;/p&gt;" style="verticalAlign=top;align=left;overflow=fill;html=1;whiteSpace=wrap;" parent="1" vertex="1">
          <mxGeometry x="180" y="-1405" width="200" height="180" as="geometry" />
        </mxCell>
        <mxCell id="fb5ipnyISE7amrQCMdho-49" value="&lt;b style=&quot;border-color: var(--border-color);&quot;&gt;AuthServerCore&lt;/b&gt;" style="swimlane;fontStyle=1;align=center;verticalAlign=top;childLayout=stackLayout;horizontal=1;startSize=26;horizontalStack=0;resizeParent=1;resizeParentMax=0;resizeLast=0;collapsible=1;marginBottom=0;whiteSpace=wrap;html=1;" parent="1" vertex="1">
          <mxGeometry x="-300" y="-1140" width="230" height="118" as="geometry" />
        </mxCell>
        <mxCell id="fb5ipnyISE7amrQCMdho-50" value="&lt;b&gt;+ logger: Logger&lt;br&gt;+ auth_server_logic: AuthServerLogic&lt;/b&gt;" style="text;strokeColor=none;fillColor=none;align=left;verticalAlign=top;spacingLeft=4;spacingRight=4;overflow=hidden;rotatable=0;points=[[0,0.5],[1,0.5]];portConstraint=eastwest;whiteSpace=wrap;html=1;" parent="fb5ipnyISE7amrQCMdho-49" vertex="1">
          <mxGeometry y="26" width="230" height="44" as="geometry" />
        </mxCell>
        <mxCell id="fb5ipnyISE7amrQCMdho-51" value="" style="line;strokeWidth=1;fillColor=none;align=left;verticalAlign=middle;spacingTop=-1;spacingLeft=3;spacingRight=3;rotatable=0;labelPosition=right;points=[];portConstraint=eastwest;strokeColor=inherit;" parent="fb5ipnyISE7amrQCMdho-49" vertex="1">
          <mxGeometry y="70" width="230" height="8" as="geometry" />
        </mxCell>
        <mxCell id="fb5ipnyISE7amrQCMdho-52" value="&lt;b&gt;+ handle_peer()&lt;br&gt;+ run()&lt;/b&gt;&lt;br&gt;&lt;div&gt;&lt;br&gt;&lt;/div&gt;" style="text;strokeColor=none;fillColor=none;align=left;verticalAlign=top;spacingLeft=4;spacingRight=4;overflow=hidden;rotatable=0;points=[[0,0.5],[1,0.5]];portConstraint=eastwest;whiteSpace=wrap;html=1;" parent="fb5ipnyISE7amrQCMdho-49" vertex="1">
          <mxGeometry y="78" width="230" height="40" as="geometry" />
        </mxCell>
        <mxCell id="fb5ipnyISE7amrQCMdho-54" value="&lt;b style=&quot;border-color: var(--border-color);&quot;&gt;MsgServerCore&lt;/b&gt;" style="swimlane;fontStyle=1;align=center;verticalAlign=top;childLayout=stackLayout;horizontal=1;startSize=26;horizontalStack=0;resizeParent=1;resizeParentMax=0;resizeLast=0;collapsible=1;marginBottom=0;whiteSpace=wrap;html=1;" parent="1" vertex="1">
          <mxGeometry x="520" y="-1140" width="300" height="190" as="geometry" />
        </mxCell>
        <mxCell id="fb5ipnyISE7amrQCMdho-55" value="&lt;b&gt;+ logger: Logger&lt;br&gt;+ encryptor: Encryptor&lt;br&gt;+ protocol_handler: ProtocolHandler&lt;br&gt;+ registration_handler: RegistrationHandler&lt;br&gt;+ symmetric_key_handler: SymmetricKeyHandler&lt;br&gt;&lt;/b&gt;" style="text;strokeColor=none;fillColor=none;align=left;verticalAlign=top;spacingLeft=4;spacingRight=4;overflow=hidden;rotatable=0;points=[[0,0.5],[1,0.5]];portConstraint=eastwest;whiteSpace=wrap;html=1;" parent="fb5ipnyISE7amrQCMdho-54" vertex="1">
          <mxGeometry y="26" width="300" height="84" as="geometry" />
        </mxCell>
        <mxCell id="fb5ipnyISE7amrQCMdho-56" value="" style="line;strokeWidth=1;fillColor=none;align=left;verticalAlign=middle;spacingTop=-1;spacingLeft=3;spacingRight=3;rotatable=0;labelPosition=right;points=[];portConstraint=eastwest;strokeColor=inherit;" parent="fb5ipnyISE7amrQCMdho-54" vertex="1">
          <mxGeometry y="110" width="300" height="10" as="geometry" />
        </mxCell>
        <mxCell id="fb5ipnyISE7amrQCMdho-57" value="&lt;b&gt;+ setup_as_client()&lt;br&gt;+ handle_peer()&lt;br&gt;&lt;/b&gt;&lt;b style=&quot;border-color: var(--border-color);&quot;&gt;+&amp;nbsp;setup_as_chat_room()&lt;br style=&quot;border-color: var(--border-color);&quot;&gt;&lt;/b&gt;&lt;b&gt;+ run()&lt;br&gt;&lt;/b&gt;&lt;div&gt;&lt;br&gt;&lt;/div&gt;" style="text;strokeColor=none;fillColor=none;align=left;verticalAlign=top;spacingLeft=4;spacingRight=4;overflow=hidden;rotatable=0;points=[[0,0.5],[1,0.5]];portConstraint=eastwest;whiteSpace=wrap;html=1;" parent="fb5ipnyISE7amrQCMdho-54" vertex="1">
          <mxGeometry y="120" width="300" height="70" as="geometry" />
        </mxCell>
        <mxCell id="fb5ipnyISE7amrQCMdho-72" value="&lt;b style=&quot;border-color: var(--border-color);&quot;&gt;CustomSocket&lt;/b&gt;" style="swimlane;fontStyle=1;align=center;verticalAlign=top;childLayout=stackLayout;horizontal=1;startSize=26;horizontalStack=0;resizeParent=1;resizeParentMax=0;resizeLast=0;collapsible=1;marginBottom=0;whiteSpace=wrap;html=1;" parent="1" vertex="1">
          <mxGeometry x="640" y="-1400" width="200" height="180" as="geometry" />
        </mxCell>
        <mxCell id="fb5ipnyISE7amrQCMdho-73" value="&lt;b&gt;+ connection_protocol: str&lt;/b&gt;" style="text;align=left;verticalAlign=top;spacingLeft=4;spacingRight=4;overflow=hidden;rotatable=0;points=[[0,0.5],[1,0.5]];portConstraint=eastwest;whiteSpace=wrap;html=1;" parent="fb5ipnyISE7amrQCMdho-72" vertex="1">
          <mxGeometry y="26" width="200" height="34" as="geometry" />
        </mxCell>
        <mxCell id="fb5ipnyISE7amrQCMdho-74" value="" style="line;strokeWidth=1;fillColor=none;align=left;verticalAlign=middle;spacingTop=-1;spacingLeft=3;spacingRight=3;rotatable=0;labelPosition=right;points=[];portConstraint=eastwest;strokeColor=inherit;" parent="fb5ipnyISE7amrQCMdho-72" vertex="1">
          <mxGeometry y="60" width="200" height="8" as="geometry" />
        </mxCell>
        <mxCell id="fb5ipnyISE7amrQCMdho-75" value="&lt;b&gt;+ set_socket_protocol()&lt;br&gt;+ create_socket()&lt;br&gt;+ connect()&lt;br&gt;+ monitor_connection()&lt;br&gt;+&amp;nbsp;receive_packet()&lt;br&gt;+ send_packet()&lt;br&gt;+ send_recv_packet()&lt;br&gt;&lt;/b&gt;&lt;div&gt;&lt;br&gt;&lt;/div&gt;" style="text;strokeColor=none;fillColor=none;align=left;verticalAlign=top;spacingLeft=4;spacingRight=4;overflow=hidden;rotatable=0;points=[[0,0.5],[1,0.5]];portConstraint=eastwest;whiteSpace=wrap;html=1;" parent="fb5ipnyISE7amrQCMdho-72" vertex="1">
          <mxGeometry y="68" width="200" height="112" as="geometry" />
        </mxCell>
        <mxCell id="fb5ipnyISE7amrQCMdho-77" value="&lt;p style=&quot;margin:0px;margin-top:6px;text-align:center;&quot;&gt;&lt;b&gt;RegistrationHandler&lt;/b&gt;&lt;/p&gt;&lt;hr&gt;&lt;p style=&quot;border-color: var(--border-color); margin: 0px 0px 0px 8px;&quot;&gt;&lt;b style=&quot;border-color: var(--border-color);&quot;&gt;- handle_register_success()&lt;/b&gt;&lt;/p&gt;&lt;p style=&quot;border-color: var(--border-color); margin: 0px 0px 0px 8px;&quot;&gt;&lt;b style=&quot;border-color: var(--border-color);&quot;&gt;- handle_register_failed()&lt;/b&gt;&lt;/p&gt;&lt;p style=&quot;margin:0px;margin-left:8px;&quot;&gt;&lt;b&gt;+ register_client()&lt;br&gt;+ register_service()&lt;/b&gt;&lt;/p&gt;&lt;p style=&quot;margin:0px;margin-left:8px;&quot;&gt;&lt;br&gt;&lt;/p&gt;" style="align=left;overflow=fill;html=1;dropTarget=0;whiteSpace=wrap;" parent="1" vertex="1">
          <mxGeometry x="-290" y="-1000" width="220" height="100" as="geometry" />
        </mxCell>
        <mxCell id="fb5ipnyISE7amrQCMdho-78" value="" style="shape=component;jettyWidth=8;jettyHeight=4;" parent="fb5ipnyISE7amrQCMdho-77" vertex="1">
          <mxGeometry x="1" width="20" height="20" relative="1" as="geometry">
            <mxPoint x="-24" y="4" as="offset" />
          </mxGeometry>
        </mxCell>
        <mxCell id="fb5ipnyISE7amrQCMdho-79" value="&lt;p style=&quot;margin:0px;margin-top:6px;text-align:center;&quot;&gt;&lt;b&gt;ServicesHandler&lt;/b&gt;&lt;/p&gt;&lt;hr&gt;&lt;p style=&quot;margin:0px;margin-left:8px;&quot;&gt;&lt;b&gt;+ get_default_service_data()&lt;/b&gt;&lt;/p&gt;&lt;p style=&quot;margin:0px;margin-left:8px;&quot;&gt;&lt;b&gt;+ get_registered_services_from_db()&lt;br&gt;+ get_services_packed_list_data()&lt;/b&gt;&lt;/p&gt;&lt;p style=&quot;margin:0px;margin-left:8px;&quot;&gt;&lt;br&gt;&lt;/p&gt;" style="align=left;overflow=fill;html=1;dropTarget=0;whiteSpace=wrap;" parent="1" vertex="1">
          <mxGeometry x="-290" y="-886" width="220" height="86" as="geometry" />
        </mxCell>
        <mxCell id="fb5ipnyISE7amrQCMdho-80" value="" style="shape=component;jettyWidth=8;jettyHeight=4;" parent="fb5ipnyISE7amrQCMdho-79" vertex="1">
          <mxGeometry x="1" width="20" height="20" relative="1" as="geometry">
            <mxPoint x="-24" y="4" as="offset" />
          </mxGeometry>
        </mxCell>
        <mxCell id="fb5ipnyISE7amrQCMdho-81" value="&lt;p style=&quot;margin:0px;margin-top:6px;text-align:center;&quot;&gt;&lt;b&gt;KeyTicketHandler&lt;/b&gt;&lt;/p&gt;&lt;hr&gt;&lt;p style=&quot;margin:0px;margin-left:8px;&quot;&gt;&lt;b&gt;+ get_service_object()&lt;br&gt;+ pack_encrypted_key_packet()&lt;/b&gt;&lt;/p&gt;&lt;p style=&quot;margin:0px;margin-left:8px;&quot;&gt;&lt;b&gt;+ pack_ticket_packet()&lt;/b&gt;&lt;/p&gt;&lt;p style=&quot;margin:0px;margin-left:8px;&quot;&gt;&lt;br&gt;&lt;/p&gt;" style="align=left;overflow=fill;html=1;dropTarget=0;whiteSpace=wrap;" parent="1" vertex="1">
          <mxGeometry x="-290" y="-785" width="220" height="90" as="geometry" />
        </mxCell>
        <mxCell id="fb5ipnyISE7amrQCMdho-82" value="" style="shape=component;jettyWidth=8;jettyHeight=4;" parent="fb5ipnyISE7amrQCMdho-81" vertex="1">
          <mxGeometry x="1" width="20" height="20" relative="1" as="geometry">
            <mxPoint x="-24" y="4" as="offset" />
          </mxGeometry>
        </mxCell>
        <mxCell id="fb5ipnyISE7amrQCMdho-83" value="&lt;b style=&quot;border-color: var(--border-color);&quot;&gt;AuthServerLogic&lt;/b&gt;" style="swimlane;fontStyle=1;align=center;verticalAlign=top;childLayout=stackLayout;horizontal=1;startSize=26;horizontalStack=0;resizeParent=1;resizeParentMax=0;resizeLast=0;collapsible=1;marginBottom=0;whiteSpace=wrap;html=1;" parent="1" vertex="1">
          <mxGeometry x="-10" y="-1016" width="260" height="200" as="geometry" />
        </mxCell>
        <mxCell id="fb5ipnyISE7amrQCMdho-84" value="&lt;b&gt;+ logger: Logger&lt;br&gt;+ protocol_handler: ProtocolHandler&lt;br&gt;+ encryptor: Encryptor&lt;br&gt;+&amp;nbsp;registration_handler:&amp;nbsp;RegistrationHandler&lt;br&gt;+&amp;nbsp;&lt;/b&gt;&lt;b style=&quot;border-color: var(--border-color);&quot;&gt;services_handler&lt;b style=&quot;background-color: initial; border-color: var(--border-color);&quot;&gt;:&amp;nbsp;&lt;/b&gt;&lt;span style=&quot;background-color: initial;&quot;&gt;ServicesHandler&lt;br&gt;+ key_ticket_handler: KeyTicketHandler&lt;br&gt;&lt;/span&gt;&lt;br&gt;&lt;/b&gt;" style="text;strokeColor=none;fillColor=none;align=left;verticalAlign=top;spacingLeft=4;spacingRight=4;overflow=hidden;rotatable=0;points=[[0,0.5],[1,0.5]];portConstraint=eastwest;whiteSpace=wrap;html=1;" parent="fb5ipnyISE7amrQCMdho-83" vertex="1">
          <mxGeometry y="26" width="260" height="104" as="geometry" />
        </mxCell>
        <mxCell id="fb5ipnyISE7amrQCMdho-85" value="" style="line;strokeWidth=1;fillColor=none;align=left;verticalAlign=middle;spacingTop=-1;spacingLeft=3;spacingRight=3;rotatable=0;labelPosition=right;points=[];portConstraint=eastwest;strokeColor=inherit;" parent="fb5ipnyISE7amrQCMdho-83" vertex="1">
          <mxGeometry y="130" width="260" height="8" as="geometry" />
        </mxCell>
        <mxCell id="fb5ipnyISE7amrQCMdho-86" value="&lt;b&gt;+&amp;nbsp;handle_registration_request()&lt;br&gt;+&amp;nbsp;handle_services_list_request()&lt;/b&gt;&lt;div&gt;&lt;b&gt;+&amp;nbsp;handle_aes_key_request()&lt;/b&gt;&lt;br&gt;&lt;/div&gt;" style="text;strokeColor=none;fillColor=none;align=left;verticalAlign=top;spacingLeft=4;spacingRight=4;overflow=hidden;rotatable=0;points=[[0,0.5],[1,0.5]];portConstraint=eastwest;whiteSpace=wrap;html=1;" parent="fb5ipnyISE7amrQCMdho-83" vertex="1">
          <mxGeometry y="138" width="260" height="62" as="geometry" />
        </mxCell>
        <mxCell id="fb5ipnyISE7amrQCMdho-91" value="&lt;p style=&quot;margin:0px;margin-top:6px;text-align:center;&quot;&gt;&lt;b&gt;RegistrationHandler&lt;/b&gt;&lt;/p&gt;&lt;hr&gt;&lt;p style=&quot;margin:0px;margin-left:8px;&quot;&gt;&lt;b&gt;- process_registration_response()&lt;/b&gt;&lt;/p&gt;&lt;p style=&quot;margin:0px;margin-left:8px;&quot;&gt;&lt;b&gt;+ handle_registeration_request()&lt;/b&gt;&lt;/p&gt;&lt;p style=&quot;margin:0px;margin-left:8px;&quot;&gt;&lt;br&gt;&lt;/p&gt;" style="align=left;overflow=fill;html=1;dropTarget=0;whiteSpace=wrap;" parent="1" vertex="1">
          <mxGeometry x="300" y="-790" width="240" height="80" as="geometry" />
        </mxCell>
        <mxCell id="fb5ipnyISE7amrQCMdho-92" value="" style="shape=component;jettyWidth=8;jettyHeight=4;" parent="fb5ipnyISE7amrQCMdho-91" vertex="1">
          <mxGeometry x="1" width="20" height="20" relative="1" as="geometry">
            <mxPoint x="-24" y="4" as="offset" />
          </mxGeometry>
        </mxCell>
        <mxCell id="fb5ipnyISE7amrQCMdho-93" value="&lt;p style=&quot;margin:0px;margin-top:6px;text-align:center;&quot;&gt;&lt;b&gt;SymmtericKeyHandler&lt;/b&gt;&lt;/p&gt;&lt;hr&gt;&lt;p style=&quot;margin:0px;margin-left:8px;&quot;&gt;&lt;b&gt;- process_authenticator_packet()&lt;/b&gt;&lt;/p&gt;&lt;p style=&quot;margin:0px;margin-left:8px;&quot;&gt;&lt;b&gt;- process_ticket_packet()&lt;/b&gt;&lt;/p&gt;&lt;p style=&quot;margin:0px;margin-left:8px;&quot;&gt;&lt;b&gt;- validate_symmetric_key_data()&lt;/b&gt;&lt;/p&gt;&lt;p style=&quot;margin:0px;margin-left:8px;&quot;&gt;&lt;b&gt;+ handle_symmetric_key_request()&lt;/b&gt;&lt;/p&gt;&lt;p style=&quot;margin:0px;margin-left:8px;&quot;&gt;&lt;br&gt;&lt;/p&gt;" style="align=left;overflow=fill;html=1;dropTarget=0;whiteSpace=wrap;" parent="1" vertex="1">
          <mxGeometry x="300" y="-916" width="240" height="100" as="geometry" />
        </mxCell>
        <mxCell id="fb5ipnyISE7amrQCMdho-94" value="" style="shape=component;jettyWidth=8;jettyHeight=4;" parent="fb5ipnyISE7amrQCMdho-93" vertex="1">
          <mxGeometry x="1" width="20" height="20" relative="1" as="geometry">
            <mxPoint x="-24" y="4" as="offset" />
          </mxGeometry>
        </mxCell>
        <mxCell id="fb5ipnyISE7amrQCMdho-95" value="&lt;font style=&quot;font-size: 14px;&quot;&gt;Protocol Handler&lt;/font&gt;" style="shape=folder;fontStyle=1;spacingTop=10;tabWidth=40;tabHeight=14;tabPosition=left;html=1;whiteSpace=wrap;" parent="1" vertex="1">
          <mxGeometry x="1320" y="-570" width="110" height="70" as="geometry" />
        </mxCell>
        <mxCell id="fb5ipnyISE7amrQCMdho-96" value="&lt;p style=&quot;margin:0px;margin-top:4px;text-align:center;&quot;&gt;&lt;i&gt;&amp;lt;&amp;lt;Interface&amp;gt;&amp;gt;&lt;/i&gt;&lt;br&gt;&lt;b&gt;protocol_interface&lt;/b&gt;&lt;/p&gt;&lt;hr size=&quot;1&quot;&gt;&lt;p style=&quot;margin:0px;margin-left:4px;&quot;&gt;&lt;b&gt;&amp;lt;&amp;lt;abstract&amp;gt;&amp;gt; pack_request()&lt;/b&gt;&lt;/p&gt;&lt;p style=&quot;margin:0px;margin-left:4px;&quot;&gt;&lt;b&gt;&amp;lt;&amp;lt;abstract&amp;gt;&amp;gt; unpack_reqeust()&lt;/b&gt;&lt;/p&gt;&lt;p style=&quot;margin:0px;margin-left:4px;&quot;&gt;&lt;/p&gt;&lt;p style=&quot;margin:0px;margin-left:4px;&quot;&gt;&lt;br&gt;&lt;/p&gt;" style="verticalAlign=top;align=left;overflow=fill;html=1;whiteSpace=wrap;" parent="1" vertex="1">
          <mxGeometry x="1120" y="-865" width="200" height="80" as="geometry" />
        </mxCell>
        <mxCell id="fb5ipnyISE7amrQCMdho-97" value="&lt;b style=&quot;border-color: var(--border-color);&quot;&gt;ProtocolHandler&lt;/b&gt;" style="swimlane;fontStyle=1;align=center;verticalAlign=top;childLayout=stackLayout;horizontal=1;startSize=26;horizontalStack=0;resizeParent=1;resizeParentMax=0;resizeLast=0;collapsible=1;marginBottom=0;whiteSpace=wrap;html=1;" parent="1" vertex="1">
          <mxGeometry x="1040" y="-730" width="220" height="200" as="geometry" />
        </mxCell>
        <mxCell id="fb5ipnyISE7amrQCMdho-98" value="&lt;b&gt;+ logger: Logger&lt;/b&gt;" style="text;strokeColor=none;fillColor=none;align=left;verticalAlign=top;spacingLeft=4;spacingRight=4;overflow=hidden;rotatable=0;points=[[0,0.5],[1,0.5]];portConstraint=eastwest;whiteSpace=wrap;html=1;" parent="fb5ipnyISE7amrQCMdho-97" vertex="1">
          <mxGeometry y="26" width="220" height="24" as="geometry" />
        </mxCell>
        <mxCell id="fb5ipnyISE7amrQCMdho-99" value="" style="line;strokeWidth=1;fillColor=none;align=left;verticalAlign=middle;spacingTop=-1;spacingLeft=3;spacingRight=3;rotatable=0;labelPosition=right;points=[];portConstraint=eastwest;strokeColor=inherit;" parent="fb5ipnyISE7amrQCMdho-97" vertex="1">
          <mxGeometry y="50" width="220" height="8" as="geometry" />
        </mxCell>
        <mxCell id="fb5ipnyISE7amrQCMdho-100" value="&lt;div&gt;&lt;b style=&quot;background-color: initial;&quot;&gt;- adjust_fmt()&lt;/b&gt;&lt;br&gt;&lt;/div&gt;&lt;div&gt;&lt;div&gt;&lt;b&gt;- clean_unpacked_data()&lt;/b&gt;&lt;/div&gt;&lt;div&gt;&lt;b&gt;- serialize_packet()&lt;/b&gt;&lt;/div&gt;&lt;div&gt;&lt;b&gt;- deserialize_serialize_ipv4()&lt;/b&gt;&lt;/div&gt;&lt;/div&gt;&lt;b&gt;+ pack_request()&lt;br&gt;+&amp;nbsp;unpack_request()&lt;/b&gt;&lt;div&gt;&lt;b&gt;+ build_packet_format()&lt;/b&gt;&lt;/div&gt;&lt;div&gt;&lt;b style=&quot;background-color: initial;&quot;&gt;+ generate_packet_fmt()&lt;/b&gt;&lt;br&gt;&lt;/div&gt;&lt;div&gt;&lt;b&gt;+ update_formatter_value()&lt;br&gt;&lt;br&gt;&lt;br&gt;&lt;/b&gt;&lt;div&gt;&lt;br&gt;&lt;/div&gt;&lt;/div&gt;" style="text;strokeColor=none;fillColor=none;align=left;verticalAlign=top;spacingLeft=4;spacingRight=4;overflow=hidden;rotatable=0;points=[[0,0.5],[1,0.5]];portConstraint=eastwest;whiteSpace=wrap;html=1;" parent="fb5ipnyISE7amrQCMdho-97" vertex="1">
          <mxGeometry y="58" width="220" height="142" as="geometry" />
        </mxCell>
        <mxCell id="fb5ipnyISE7amrQCMdho-101" value="&lt;b&gt;protocol_utils&lt;/b&gt;" style="html=1;dropTarget=0;whiteSpace=wrap;" parent="1" vertex="1">
          <mxGeometry x="1350" y="-670" width="180" height="60" as="geometry" />
        </mxCell>
        <mxCell id="fb5ipnyISE7amrQCMdho-102" value="" style="shape=module;jettyWidth=8;jettyHeight=4;" parent="fb5ipnyISE7amrQCMdho-101" vertex="1">
          <mxGeometry x="1" width="20" height="20" relative="1" as="geometry">
            <mxPoint x="-27" y="7" as="offset" />
          </mxGeometry>
        </mxCell>
        <mxCell id="fb5ipnyISE7amrQCMdho-103" value="&lt;font style=&quot;font-size: 14px;&quot;&gt;Utils&lt;/font&gt;" style="shape=folder;fontStyle=1;spacingTop=10;tabWidth=40;tabHeight=14;tabPosition=left;html=1;whiteSpace=wrap;" parent="1" vertex="1">
          <mxGeometry x="-40" y="-390" width="100" height="60" as="geometry" />
        </mxCell>
        <mxCell id="fb5ipnyISE7amrQCMdho-106" value="&lt;b&gt;&lt;font style=&quot;font-size: 12px;&quot;&gt;custom_exception_handler&lt;/font&gt;&lt;/b&gt;" style="html=1;dropTarget=0;whiteSpace=wrap;" parent="1" vertex="1">
          <mxGeometry x="10" y="-475" width="180" height="70" as="geometry" />
        </mxCell>
        <mxCell id="fb5ipnyISE7amrQCMdho-107" value="" style="shape=module;jettyWidth=8;jettyHeight=4;" parent="fb5ipnyISE7amrQCMdho-106" vertex="1">
          <mxGeometry x="1" width="20" height="20" relative="1" as="geometry">
            <mxPoint x="-27" y="7" as="offset" />
          </mxGeometry>
        </mxCell>
        <mxCell id="fb5ipnyISE7amrQCMdho-108" value="&lt;b&gt;encryptor&lt;/b&gt;" style="html=1;dropTarget=0;whiteSpace=wrap;" parent="1" vertex="1">
          <mxGeometry x="-170" y="-545" width="180" height="70" as="geometry" />
        </mxCell>
        <mxCell id="fb5ipnyISE7amrQCMdho-109" value="" style="shape=module;jettyWidth=8;jettyHeight=4;" parent="fb5ipnyISE7amrQCMdho-108" vertex="1">
          <mxGeometry x="1" width="20" height="20" relative="1" as="geometry">
            <mxPoint x="-27" y="7" as="offset" />
          </mxGeometry>
        </mxCell>
        <mxCell id="fb5ipnyISE7amrQCMdho-110" value="&lt;b&gt;logger&lt;/b&gt;" style="html=1;dropTarget=0;whiteSpace=wrap;" parent="1" vertex="1">
          <mxGeometry x="-170" y="-615" width="180" height="70" as="geometry" />
        </mxCell>
        <mxCell id="fb5ipnyISE7amrQCMdho-111" value="" style="shape=module;jettyWidth=8;jettyHeight=4;" parent="fb5ipnyISE7amrQCMdho-110" vertex="1">
          <mxGeometry x="1" width="20" height="20" relative="1" as="geometry">
            <mxPoint x="-27" y="7" as="offset" />
          </mxGeometry>
        </mxCell>
        <mxCell id="fb5ipnyISE7amrQCMdho-112" value="&lt;b&gt;utils&lt;/b&gt;" style="html=1;dropTarget=0;whiteSpace=wrap;" parent="1" vertex="1">
          <mxGeometry x="10" y="-545" width="180" height="70" as="geometry" />
        </mxCell>
        <mxCell id="fb5ipnyISE7amrQCMdho-113" value="" style="shape=module;jettyWidth=8;jettyHeight=4;" parent="fb5ipnyISE7amrQCMdho-112" vertex="1">
          <mxGeometry x="1" width="20" height="20" relative="1" as="geometry">
            <mxPoint x="-27" y="7" as="offset" />
          </mxGeometry>
        </mxCell>
        <mxCell id="fb5ipnyISE7amrQCMdho-114" value="&lt;b style=&quot;border-color: var(--border-color);&quot;&gt;custom_arg_parser&lt;/b&gt;" style="html=1;dropTarget=0;whiteSpace=wrap;" parent="1" vertex="1">
          <mxGeometry x="10" y="-615" width="180" height="70" as="geometry" />
        </mxCell>
        <mxCell id="fb5ipnyISE7amrQCMdho-115" value="" style="shape=module;jettyWidth=8;jettyHeight=4;" parent="fb5ipnyISE7amrQCMdho-114" vertex="1">
          <mxGeometry x="1" width="20" height="20" relative="1" as="geometry">
            <mxPoint x="-27" y="7" as="offset" />
          </mxGeometry>
        </mxCell>
        <mxCell id="fb5ipnyISE7amrQCMdho-116" value="&lt;b&gt;&lt;font style=&quot;font-size: 12px;&quot;&gt;validator&lt;/font&gt;&lt;/b&gt;" style="html=1;dropTarget=0;whiteSpace=wrap;" parent="1" vertex="1">
          <mxGeometry x="-170" y="-475" width="180" height="70" as="geometry" />
        </mxCell>
        <mxCell id="fb5ipnyISE7amrQCMdho-117" value="" style="shape=module;jettyWidth=8;jettyHeight=4;" parent="fb5ipnyISE7amrQCMdho-116" vertex="1">
          <mxGeometry x="1" width="20" height="20" relative="1" as="geometry">
            <mxPoint x="-27" y="7" as="offset" />
          </mxGeometry>
        </mxCell>
        <mxCell id="fb5ipnyISE7amrQCMdho-118" value="&lt;font style=&quot;font-size: 14px;&quot;&gt;Client&lt;/font&gt;" style="shape=folder;fontStyle=1;spacingTop=10;tabWidth=40;tabHeight=14;tabPosition=left;html=1;whiteSpace=wrap;" parent="1" vertex="1">
          <mxGeometry x="1200" y="-1475" width="95" height="70" as="geometry" />
        </mxCell>
        <mxCell id="fb5ipnyISE7amrQCMdho-119" value="&lt;b&gt;auth_server_constants&lt;/b&gt;" style="html=1;dropTarget=0;whiteSpace=wrap;" parent="1" vertex="1">
          <mxGeometry x="30" y="-755" width="180" height="60" as="geometry" />
        </mxCell>
        <mxCell id="fb5ipnyISE7amrQCMdho-120" value="" style="shape=module;jettyWidth=8;jettyHeight=4;" parent="fb5ipnyISE7amrQCMdho-119" vertex="1">
          <mxGeometry x="1" width="20" height="20" relative="1" as="geometry">
            <mxPoint x="-27" y="7" as="offset" />
          </mxGeometry>
        </mxCell>
        <mxCell id="fb5ipnyISE7amrQCMdho-121" value="&lt;b&gt;msg_server_constants&lt;/b&gt;" style="html=1;dropTarget=0;whiteSpace=wrap;" parent="1" vertex="1">
          <mxGeometry x="600" y="-770" width="220" height="60" as="geometry" />
        </mxCell>
        <mxCell id="fb5ipnyISE7amrQCMdho-122" value="" style="shape=module;jettyWidth=8;jettyHeight=4;" parent="fb5ipnyISE7amrQCMdho-121" vertex="1">
          <mxGeometry x="1" width="20" height="20" relative="1" as="geometry">
            <mxPoint x="-27" y="7" as="offset" />
          </mxGeometry>
        </mxCell>
        <mxCell id="fb5ipnyISE7amrQCMdho-123" value="&lt;b style=&quot;border-color: var(--border-color);&quot;&gt;ClientCore&lt;/b&gt;" style="swimlane;fontStyle=1;align=center;verticalAlign=top;childLayout=stackLayout;horizontal=1;startSize=26;horizontalStack=0;resizeParent=1;resizeParentMax=0;resizeLast=0;collapsible=1;marginBottom=0;whiteSpace=wrap;html=1;" parent="1" vertex="1">
          <mxGeometry x="1000" y="-1380" width="260" height="230" as="geometry" />
        </mxCell>
        <mxCell id="fb5ipnyISE7amrQCMdho-124" value="&lt;b&gt;+ logger: Logger&lt;br&gt;+ encryptor: Encryptor&lt;br&gt;+ protocol_handler: ProtocolHandler&lt;br&gt;&lt;/b&gt;&lt;b style=&quot;border-color: var(--border-color);&quot;&gt;+&amp;nbsp;registration_handler:&amp;nbsp;RegistrationHandler&lt;br style=&quot;border-color: var(--border-color);&quot;&gt;+&amp;nbsp;&lt;/b&gt;&lt;b style=&quot;border-color: var(--border-color);&quot;&gt;services_handler&lt;b style=&quot;border-color: var(--border-color); background-color: initial;&quot;&gt;:&amp;nbsp;&lt;/b&gt;ServicesHandler&lt;br style=&quot;border-color: var(--border-color);&quot;&gt;+ key_ticket_handler: KeyTicketHandler&lt;/b&gt;&lt;b&gt;&lt;br&gt;&lt;/b&gt;" style="text;strokeColor=none;fillColor=none;align=left;verticalAlign=top;spacingLeft=4;spacingRight=4;overflow=hidden;rotatable=0;points=[[0,0.5],[1,0.5]];portConstraint=eastwest;whiteSpace=wrap;html=1;" parent="fb5ipnyISE7amrQCMdho-123" vertex="1">
          <mxGeometry y="26" width="260" height="104" as="geometry" />
        </mxCell>
        <mxCell id="fb5ipnyISE7amrQCMdho-125" value="" style="line;strokeWidth=1;fillColor=none;align=left;verticalAlign=middle;spacingTop=-1;spacingLeft=3;spacingRight=3;rotatable=0;labelPosition=right;points=[];portConstraint=eastwest;strokeColor=inherit;" parent="fb5ipnyISE7amrQCMdho-123" vertex="1">
          <mxGeometry y="130" width="260" height="8" as="geometry" />
        </mxCell>
        <mxCell id="fb5ipnyISE7amrQCMdho-126" value="&lt;b&gt;- register()&lt;br&gt;- get_services_list()&lt;br&gt;- get_service_aes_key()&lt;br&gt;+&amp;nbsp;handle_client_logic&lt;span style=&quot;background-color: initial;&quot;&gt;()&lt;/span&gt;&lt;br&gt;+ run()&lt;br&gt;&lt;/b&gt;&lt;div&gt;&lt;br&gt;&lt;/div&gt;" style="text;strokeColor=none;fillColor=none;align=left;verticalAlign=top;spacingLeft=4;spacingRight=4;overflow=hidden;rotatable=0;points=[[0,0.5],[1,0.5]];portConstraint=eastwest;whiteSpace=wrap;html=1;" parent="fb5ipnyISE7amrQCMdho-123" vertex="1">
          <mxGeometry y="138" width="260" height="92" as="geometry" />
        </mxCell>
        <mxCell id="fb5ipnyISE7amrQCMdho-132" value="&lt;p style=&quot;margin:0px;margin-top:6px;text-align:center;&quot;&gt;&lt;b&gt;RegistrationHandler&lt;/b&gt;&lt;/p&gt;&lt;hr&gt;&lt;p style=&quot;border-color: var(--border-color); margin: 0px 0px 0px 8px;&quot;&gt;&lt;b style=&quot;border-color: var(--border-color);&quot;&gt;- process_register_response()&lt;/b&gt;&lt;/p&gt;&lt;p style=&quot;margin:0px;margin-left:8px;&quot;&gt;&lt;b&gt;+ handle_registration_request()&lt;/b&gt;&lt;/p&gt;&lt;p style=&quot;margin:0px;margin-left:8px;&quot;&gt;&lt;br&gt;&lt;/p&gt;" style="align=left;overflow=fill;html=1;dropTarget=0;whiteSpace=wrap;" parent="1" vertex="1">
          <mxGeometry x="1310" y="-1380" width="220" height="73.75" as="geometry" />
        </mxCell>
        <mxCell id="fb5ipnyISE7amrQCMdho-133" value="" style="shape=component;jettyWidth=8;jettyHeight=4;" parent="fb5ipnyISE7amrQCMdho-132" vertex="1">
          <mxGeometry x="1" width="20" height="20" relative="1" as="geometry">
            <mxPoint x="-24" y="4" as="offset" />
          </mxGeometry>
        </mxCell>
        <mxCell id="fb5ipnyISE7amrQCMdho-134" value="&lt;p style=&quot;margin:0px;margin-top:6px;text-align:center;&quot;&gt;&lt;b&gt;ServicesHandler&lt;/b&gt;&lt;/p&gt;&lt;hr&gt;&lt;p style=&quot;margin:0px;margin-left:8px;&quot;&gt;&lt;b style=&quot;border-color: var(--border-color);&quot;&gt;- insert_servers_list_to_db()&lt;/b&gt;&lt;br style=&quot;border-color: var(--border-color);&quot;&gt;&lt;/p&gt;&lt;p style=&quot;margin:0px;margin-left:8px;&quot;&gt;&lt;b&gt;- parse_servers_list_data()&lt;/b&gt;&lt;/p&gt;&lt;p style=&quot;margin:0px;margin-left:8px;&quot;&gt;&lt;b&gt;+ handle_services_list_request()&lt;/b&gt;&lt;/p&gt;&lt;p style=&quot;margin:0px;margin-left:8px;&quot;&gt;&lt;br&gt;&lt;/p&gt;&lt;p style=&quot;margin:0px;margin-left:8px;&quot;&gt;&lt;br&gt;&lt;/p&gt;" style="align=left;overflow=fill;html=1;dropTarget=0;whiteSpace=wrap;" parent="1" vertex="1">
          <mxGeometry x="1310" y="-1285" width="220" height="85" as="geometry" />
        </mxCell>
        <mxCell id="fb5ipnyISE7amrQCMdho-135" value="" style="shape=component;jettyWidth=8;jettyHeight=4;" parent="fb5ipnyISE7amrQCMdho-134" vertex="1">
          <mxGeometry x="1" width="20" height="20" relative="1" as="geometry">
            <mxPoint x="-24" y="4" as="offset" />
          </mxGeometry>
        </mxCell>
        <mxCell id="fb5ipnyISE7amrQCMdho-136" value="&lt;p style=&quot;margin:0px;margin-top:6px;text-align:center;&quot;&gt;&lt;b&gt;KeyTicketHandler&lt;/b&gt;&lt;/p&gt;&lt;hr&gt;&lt;p style=&quot;margin:0px;margin-left:8px;&quot;&gt;&lt;b&gt;- get_service_object()&lt;br&gt;&lt;/b&gt;&lt;/p&gt;&lt;p style=&quot;margin:0px;margin-left:8px;&quot;&gt;&lt;b&gt;+ handle_aes_key_request()&lt;/b&gt;&lt;/p&gt;&lt;p style=&quot;margin:0px;margin-left:8px;&quot;&gt;&lt;br&gt;&lt;/p&gt;&lt;p style=&quot;margin:0px;margin-left:8px;&quot;&gt;&lt;br&gt;&lt;/p&gt;" style="align=left;overflow=fill;html=1;dropTarget=0;whiteSpace=wrap;" parent="1" vertex="1">
          <mxGeometry x="1290" y="-1150" width="250" height="70" as="geometry" />
        </mxCell>
        <mxCell id="fb5ipnyISE7amrQCMdho-137" value="" style="shape=component;jettyWidth=8;jettyHeight=4;" parent="fb5ipnyISE7amrQCMdho-136" vertex="1">
          <mxGeometry x="1" width="20" height="20" relative="1" as="geometry">
            <mxPoint x="-24" y="4" as="offset" />
          </mxGeometry>
        </mxCell>
        <mxCell id="fb5ipnyISE7amrQCMdho-138" value="&lt;b&gt;client_input&lt;/b&gt;" style="html=1;dropTarget=0;whiteSpace=wrap;" parent="1" vertex="1">
          <mxGeometry x="990" y="-1040" width="180" height="60" as="geometry" />
        </mxCell>
        <mxCell id="fb5ipnyISE7amrQCMdho-139" value="" style="shape=module;jettyWidth=8;jettyHeight=4;" parent="fb5ipnyISE7amrQCMdho-138" vertex="1">
          <mxGeometry x="1" width="20" height="20" relative="1" as="geometry">
            <mxPoint x="-27" y="7" as="offset" />
          </mxGeometry>
        </mxCell>
        <mxCell id="fb5ipnyISE7amrQCMdho-140" value="&lt;b&gt;client_constants&lt;/b&gt;" style="html=1;dropTarget=0;whiteSpace=wrap;" parent="1" vertex="1">
          <mxGeometry x="990" y="-1110" width="180" height="60" as="geometry" />
        </mxCell>
        <mxCell id="fb5ipnyISE7amrQCMdho-141" value="" style="shape=module;jettyWidth=8;jettyHeight=4;" parent="fb5ipnyISE7amrQCMdho-140" vertex="1">
          <mxGeometry x="1" width="20" height="20" relative="1" as="geometry">
            <mxPoint x="-27" y="7" as="offset" />
          </mxGeometry>
        </mxCell>
        <mxCell id="fb5ipnyISE7amrQCMdho-142" value="&lt;font style=&quot;font-size: 14px;&quot;&gt;Service Manager&lt;/font&gt;" style="shape=folder;fontStyle=1;spacingTop=10;tabWidth=40;tabHeight=14;tabPosition=left;html=1;whiteSpace=wrap;" parent="1" vertex="1">
          <mxGeometry x="685" y="-370" width="100" height="60" as="geometry" />
        </mxCell>
        <mxCell id="fb5ipnyISE7amrQCMdho-143" value="&lt;b style=&quot;border-color: var(--border-color);&quot;&gt;ServiceManager&lt;/b&gt;" style="swimlane;fontStyle=1;align=center;verticalAlign=top;childLayout=stackLayout;horizontal=1;startSize=26;horizontalStack=0;resizeParent=1;resizeParentMax=0;resizeLast=0;collapsible=1;marginBottom=0;whiteSpace=wrap;html=1;" parent="1" vertex="1">
          <mxGeometry x="600" y="-640" width="220" height="260" as="geometry" />
        </mxCell>
        <mxCell id="fb5ipnyISE7amrQCMdho-144" value="&lt;b&gt;+ logger: Logger&lt;br&gt;+ encryptor: Encryptor&lt;br&gt;+ msg_server: MsgServer&lt;/b&gt;" style="text;strokeColor=none;fillColor=none;align=left;verticalAlign=top;spacingLeft=4;spacingRight=4;overflow=hidden;rotatable=0;points=[[0,0.5],[1,0.5]];portConstraint=eastwest;whiteSpace=wrap;html=1;" parent="fb5ipnyISE7amrQCMdho-143" vertex="1">
          <mxGeometry y="26" width="220" height="54" as="geometry" />
        </mxCell>
        <mxCell id="fb5ipnyISE7amrQCMdho-145" value="" style="line;strokeWidth=1;fillColor=none;align=left;verticalAlign=middle;spacingTop=-1;spacingLeft=3;spacingRight=3;rotatable=0;labelPosition=right;points=[];portConstraint=eastwest;strokeColor=inherit;" parent="fb5ipnyISE7amrQCMdho-143" vertex="1">
          <mxGeometry y="80" width="220" height="8" as="geometry" />
        </mxCell>
        <mxCell id="fb5ipnyISE7amrQCMdho-146" value="&lt;b&gt;- create_default_service&lt;span style=&quot;background-color: initial;&quot;&gt;()&lt;/span&gt;&lt;br&gt;- parse_default_service_data&lt;span style=&quot;background-color: initial;&quot;&gt;()&lt;/span&gt;&lt;/b&gt;&lt;div&gt;&lt;b&gt;&lt;span style=&quot;background-color: initial;&quot;&gt;- create_service()&lt;/span&gt;&lt;/b&gt;&lt;/div&gt;&lt;div&gt;&lt;b&gt;&lt;span style=&quot;background-color: initial;&quot;&gt;- parse_services_configs()&lt;/span&gt;&lt;/b&gt;&lt;/div&gt;&lt;div&gt;&lt;b&gt;&lt;span style=&quot;background-color: initial;&quot;&gt;- create_service_template()&lt;/span&gt;&lt;/b&gt;&lt;/div&gt;&lt;div&gt;&lt;b&gt;&lt;span style=&quot;background-color: initial;&quot;&gt;- add_unique_service()&lt;/span&gt;&lt;/b&gt;&lt;/div&gt;&lt;div&gt;&lt;b&gt;&lt;span style=&quot;background-color: initial;&quot;&gt;-&amp;nbsp;&lt;/span&gt;&lt;/b&gt;&lt;b&gt;create_service_pool()&lt;/b&gt;&lt;b&gt;&lt;span style=&quot;background-color: initial;&quot;&gt;&lt;br&gt;&lt;/span&gt;+&amp;nbsp;run_service()&lt;br&gt;+&amp;nbsp;start_services()&lt;br&gt;+&amp;nbsp;stop_services()&lt;br&gt;+ run()&lt;br&gt;&lt;/b&gt;&lt;div&gt;&lt;br&gt;&lt;/div&gt;&lt;/div&gt;" style="text;strokeColor=none;fillColor=none;align=left;verticalAlign=top;spacingLeft=4;spacingRight=4;overflow=hidden;rotatable=0;points=[[0,0.5],[1,0.5]];portConstraint=eastwest;whiteSpace=wrap;html=1;" parent="fb5ipnyISE7amrQCMdho-143" vertex="1">
          <mxGeometry y="88" width="220" height="172" as="geometry" />
        </mxCell>
        <mxCell id="fb5ipnyISE7amrQCMdho-148" value="&lt;font style=&quot;font-size: 14px;&quot;&gt;Socket&lt;/font&gt;" style="shape=folder;fontStyle=1;spacingTop=10;tabWidth=40;tabHeight=14;tabPosition=left;html=1;whiteSpace=wrap;" parent="1" vertex="1">
          <mxGeometry x="690" y="-1650" width="100" height="60" as="geometry" />
        </mxCell>
        <mxCell id="fb5ipnyISE7amrQCMdho-152" value="" style="endArrow=diamondThin;endFill=1;endSize=24;html=1;rounded=0;entryX=1.001;entryY=0.762;entryDx=0;entryDy=0;entryPerimeter=0;exitX=0.534;exitY=-0.001;exitDx=0;exitDy=0;exitPerimeter=0;" parent="1" source="fb5ipnyISE7amrQCMdho-83" target="fb5ipnyISE7amrQCMdho-50" edge="1">
          <mxGeometry width="160" relative="1" as="geometry">
            <mxPoint x="129" y="-1020" as="sourcePoint" />
            <mxPoint x="129.38" y="-1030" as="targetPoint" />
            <Array as="points">
              <mxPoint x="129" y="-1080" />
            </Array>
          </mxGeometry>
        </mxCell>
        <mxCell id="fb5ipnyISE7amrQCMdho-157" value="" style="endArrow=diamondThin;endFill=1;endSize=24;html=1;rounded=0;exitX=0.003;exitY=0.107;exitDx=0;exitDy=0;exitPerimeter=0;" parent="1" source="fb5ipnyISE7amrQCMdho-75" edge="1">
          <mxGeometry width="160" relative="1" as="geometry">
            <mxPoint x="620" y="-1320" as="sourcePoint" />
            <mxPoint x="380" y="-1320" as="targetPoint" />
          </mxGeometry>
        </mxCell>
        <mxCell id="fb5ipnyISE7amrQCMdho-169" value="&lt;b&gt;Extends&lt;/b&gt;" style="endArrow=block;endSize=16;endFill=0;html=1;rounded=0;entryX=1.008;entryY=0.121;entryDx=0;entryDy=0;entryPerimeter=0;" parent="1" target="fb5ipnyISE7amrQCMdho-75" edge="1">
          <mxGeometry width="160" relative="1" as="geometry">
            <mxPoint x="1000" y="-1320" as="sourcePoint" />
            <mxPoint x="850" y="-1319" as="targetPoint" />
          </mxGeometry>
        </mxCell>
        <mxCell id="fb5ipnyISE7amrQCMdho-170" value="" style="endArrow=diamondThin;endFill=1;endSize=24;html=1;rounded=0;exitX=0;exitY=0.5;exitDx=0;exitDy=0;" parent="1" source="fb5ipnyISE7amrQCMdho-136" edge="1">
          <mxGeometry width="160" relative="1" as="geometry">
            <mxPoint x="1199.9999999999998" y="-1091" as="sourcePoint" />
            <mxPoint x="1200.1299999999999" y="-1151" as="targetPoint" />
            <Array as="points">
              <mxPoint x="1200" y="-1115" />
            </Array>
          </mxGeometry>
        </mxCell>
        <mxCell id="fb5ipnyISE7amrQCMdho-173" value="&lt;b&gt;Extends&lt;/b&gt;" style="endArrow=block;endSize=16;endFill=0;html=1;rounded=0;entryX=0.003;entryY=0.64;entryDx=0;entryDy=0;entryPerimeter=0;exitX=0.18;exitY=0.004;exitDx=0;exitDy=0;exitPerimeter=0;" parent="1" source="fb5ipnyISE7amrQCMdho-97" target="fb5ipnyISE7amrQCMdho-96" edge="1">
          <mxGeometry width="160" relative="1" as="geometry">
            <mxPoint x="1149.38" y="-665" as="sourcePoint" />
            <mxPoint x="1149.38" y="-759.38" as="targetPoint" />
            <Array as="points">
              <mxPoint x="1080" y="-814" />
            </Array>
          </mxGeometry>
        </mxCell>
        <mxCell id="fb5ipnyISE7amrQCMdho-174" value="" style="endArrow=diamondThin;endFill=1;endSize=24;html=1;rounded=0;" parent="1" edge="1">
          <mxGeometry width="160" relative="1" as="geometry">
            <mxPoint x="250" y="-930" as="sourcePoint" />
            <mxPoint x="1040" y="-706" as="targetPoint" />
            <Array as="points">
              <mxPoint x="920" y="-930" />
              <mxPoint x="920" y="-706" />
            </Array>
          </mxGeometry>
        </mxCell>
        <mxCell id="fb5ipnyISE7amrQCMdho-175" value="" style="endArrow=diamondThin;endFill=1;endSize=24;html=1;rounded=0;exitX=0.998;exitY=0.146;exitDx=0;exitDy=0;exitPerimeter=0;" parent="1" source="fb5ipnyISE7amrQCMdho-55" edge="1">
          <mxGeometry width="160" relative="1" as="geometry">
            <mxPoint x="960" y="-1080" as="sourcePoint" />
            <mxPoint x="1040" y="-670" as="targetPoint" />
            <Array as="points">
              <mxPoint x="960" y="-1102" />
              <mxPoint x="960" y="-920" />
              <mxPoint x="960" y="-670" />
            </Array>
          </mxGeometry>
        </mxCell>
        <mxCell id="fb5ipnyISE7amrQCMdho-176" value="" style="endArrow=diamondThin;endFill=1;endSize=24;html=1;rounded=0;entryX=-0.016;entryY=0.425;entryDx=0;entryDy=0;entryPerimeter=0;exitX=0.003;exitY=0.617;exitDx=0;exitDy=0;exitPerimeter=0;" parent="1" source="fb5ipnyISE7amrQCMdho-124" target="fb5ipnyISE7amrQCMdho-100" edge="1">
          <mxGeometry width="160" relative="1" as="geometry">
            <mxPoint x="950" y="-1290" as="sourcePoint" />
            <mxPoint x="880" y="-530" as="targetPoint" />
            <Array as="points">
              <mxPoint x="900" y="-1290" />
              <mxPoint x="900" y="-960" />
              <mxPoint x="900" y="-610" />
            </Array>
          </mxGeometry>
        </mxCell>
        <mxCell id="fb5ipnyISE7amrQCMdho-177" value="&lt;b&gt;client.py&lt;/b&gt;" style="html=1;dropTarget=0;whiteSpace=wrap;" parent="1" vertex="1">
          <mxGeometry x="830" y="-320" width="180" height="60" as="geometry" />
        </mxCell>
        <mxCell id="fb5ipnyISE7amrQCMdho-178" value="" style="shape=module;jettyWidth=8;jettyHeight=4;" parent="fb5ipnyISE7amrQCMdho-177" vertex="1">
          <mxGeometry x="1" width="20" height="20" relative="1" as="geometry">
            <mxPoint x="-27" y="7" as="offset" />
          </mxGeometry>
        </mxCell>
        <mxCell id="fb5ipnyISE7amrQCMdho-179" value="&lt;b&gt;msg_server.py&lt;/b&gt;" style="html=1;dropTarget=0;whiteSpace=wrap;" parent="1" vertex="1">
          <mxGeometry x="480" y="-320" width="180" height="60" as="geometry" />
        </mxCell>
        <mxCell id="fb5ipnyISE7amrQCMdho-180" value="" style="shape=module;jettyWidth=8;jettyHeight=4;" parent="fb5ipnyISE7amrQCMdho-179" vertex="1">
          <mxGeometry x="1" width="20" height="20" relative="1" as="geometry">
            <mxPoint x="-27" y="7" as="offset" />
          </mxGeometry>
        </mxCell>
        <mxCell id="fb5ipnyISE7amrQCMdho-181" value="&lt;b&gt;auth_server.py&lt;/b&gt;" style="html=1;dropTarget=0;whiteSpace=wrap;" parent="1" vertex="1">
          <mxGeometry x="150" y="-320" width="180" height="60" as="geometry" />
        </mxCell>
        <mxCell id="fb5ipnyISE7amrQCMdho-182" value="" style="shape=module;jettyWidth=8;jettyHeight=4;" parent="fb5ipnyISE7amrQCMdho-181" vertex="1">
          <mxGeometry x="1" width="20" height="20" relative="1" as="geometry">
            <mxPoint x="-27" y="7" as="offset" />
          </mxGeometry>
        </mxCell>
        <mxCell id="fb5ipnyISE7amrQCMdho-184" value="&lt;b&gt;Extends&lt;/b&gt;" style="endArrow=block;endSize=16;endFill=0;html=1;rounded=0;exitX=-0.002;exitY=0.056;exitDx=0;exitDy=0;exitPerimeter=0;entryX=0.704;entryY=0.996;entryDx=0;entryDy=0;entryPerimeter=0;" parent="1" source="fb5ipnyISE7amrQCMdho-55" target="fb5ipnyISE7amrQCMdho-37" edge="1">
          <mxGeometry width="160" relative="1" as="geometry">
            <mxPoint x="340" y="-1140.37" as="sourcePoint" />
            <mxPoint x="320" y="-1220" as="targetPoint" />
            <Array as="points">
              <mxPoint x="321" y="-1109" />
            </Array>
          </mxGeometry>
        </mxCell>
        <mxCell id="fb5ipnyISE7amrQCMdho-185" value="&lt;b&gt;Extends&lt;/b&gt;" style="endArrow=block;endSize=16;endFill=0;html=1;rounded=0;entryX=0.304;entryY=0.997;entryDx=0;entryDy=0;entryPerimeter=0;exitX=1;exitY=0.091;exitDx=0;exitDy=0;exitPerimeter=0;" parent="1" source="fb5ipnyISE7amrQCMdho-50" target="fb5ipnyISE7amrQCMdho-37" edge="1">
          <mxGeometry width="160" relative="1" as="geometry">
            <mxPoint y="-1110" as="sourcePoint" />
            <mxPoint x="240" y="-1220" as="targetPoint" />
            <Array as="points">
              <mxPoint x="240" y="-1110" />
            </Array>
          </mxGeometry>
        </mxCell>
        <mxCell id="fb5ipnyISE7amrQCMdho-186" value="" style="endArrow=diamondThin;endFill=1;endSize=24;html=1;rounded=0;entryX=0.995;entryY=0.273;entryDx=0;entryDy=0;entryPerimeter=0;" parent="1" target="fb5ipnyISE7amrQCMdho-146" edge="1">
          <mxGeometry width="160" relative="1" as="geometry">
            <mxPoint x="820" y="-1060" as="sourcePoint" />
            <mxPoint x="844" y="-504" as="targetPoint" />
            <Array as="points">
              <mxPoint x="890" y="-1060" />
              <mxPoint x="890" y="-940" />
              <mxPoint x="890" y="-770" />
              <mxPoint x="890" y="-620" />
              <mxPoint x="890" y="-506" />
            </Array>
          </mxGeometry>
        </mxCell>
        <mxCell id="fb5ipnyISE7amrQCMdho-189" value="" style="endArrow=diamondThin;endFill=1;endSize=24;html=1;rounded=0;entryX=0.592;entryY=-0.004;entryDx=0;entryDy=0;entryPerimeter=0;exitX=1.007;exitY=0.113;exitDx=0;exitDy=0;exitPerimeter=0;" parent="1" source="fb5ipnyISE7amrQCMdho-52" target="fb5ipnyISE7amrQCMdho-181" edge="1">
          <mxGeometry width="160" relative="1" as="geometry">
            <mxPoint x="-10.559999999999636" y="-1057.32" as="sourcePoint" />
            <mxPoint x="270.55" y="-330.0000000000002" as="targetPoint" />
            <Array as="points">
              <mxPoint x="260.59" y="-1057.48" />
            </Array>
          </mxGeometry>
        </mxCell>
        <mxCell id="fb5ipnyISE7amrQCMdho-190" value="" style="endArrow=diamondThin;endFill=1;endSize=24;html=1;rounded=0;" parent="1" edge="1">
          <mxGeometry width="160" relative="1" as="geometry">
            <mxPoint x="970" y="-1271" as="sourcePoint" />
            <mxPoint x="920" y="-320" as="targetPoint" />
            <Array as="points">
              <mxPoint x="1000" y="-1271" />
              <mxPoint x="920" y="-1271" />
            </Array>
          </mxGeometry>
        </mxCell>
        <mxCell id="fb5ipnyISE7amrQCMdho-192" value="" style="endArrow=diamondThin;endFill=1;endSize=24;html=1;rounded=0;exitX=0;exitY=0.26;exitDx=0;exitDy=0;exitPerimeter=0;" parent="1" source="fb5ipnyISE7amrQCMdho-146" edge="1">
          <mxGeometry width="160" relative="1" as="geometry">
            <mxPoint x="560" y="-520" as="sourcePoint" />
            <mxPoint x="560" y="-320.87" as="targetPoint" />
            <Array as="points">
              <mxPoint x="560" y="-507" />
            </Array>
          </mxGeometry>
        </mxCell>
        <mxCell id="fb5ipnyISE7amrQCMdho-217" value="&lt;h1 style=&quot;font-size: 40px;&quot;&gt;KerberosChatRooms&lt;/h1&gt;" style="text;html=1;spacing=5;spacingTop=-20;whiteSpace=wrap;overflow=hidden;rounded=0;fontFamily=Verdana;fontSize=40;" parent="1" vertex="1">
          <mxGeometry x="-300" y="-1640" width="480" height="97.5" as="geometry" />
        </mxCell>
        <mxCell id="c523WHogVDrezJnr_vs4-7" value="" style="endArrow=none;html=1;rounded=0;" parent="1" edge="1">
          <mxGeometry width="50" height="50" relative="1" as="geometry">
            <mxPoint x="-70" y="-730" as="sourcePoint" />
            <mxPoint x="-40" y="-780" as="targetPoint" />
            <Array as="points">
              <mxPoint x="-40" y="-730" />
            </Array>
          </mxGeometry>
        </mxCell>
        <mxCell id="c523WHogVDrezJnr_vs4-8" value="" style="endArrow=none;html=1;rounded=0;" parent="1" edge="1">
          <mxGeometry width="50" height="50" relative="1" as="geometry">
            <mxPoint x="-70" y="-820" as="sourcePoint" />
            <mxPoint x="-40" y="-820" as="targetPoint" />
          </mxGeometry>
        </mxCell>
        <mxCell id="c523WHogVDrezJnr_vs4-9" value="" style="endArrow=diamondThin;endFill=1;endSize=24;html=1;rounded=0;exitX=1;exitY=0.5;exitDx=0;exitDy=0;" parent="1" source="fb5ipnyISE7amrQCMdho-77" edge="1">
          <mxGeometry width="160" relative="1" as="geometry">
            <mxPoint x="-30" y="-816" as="sourcePoint" />
            <mxPoint x="130" y="-816" as="targetPoint" />
            <Array as="points">
              <mxPoint x="-40" y="-950" />
              <mxPoint x="-40" y="-780" />
              <mxPoint x="130" y="-780" />
            </Array>
          </mxGeometry>
        </mxCell>
        <mxCell id="c523WHogVDrezJnr_vs4-13" value="&lt;p style=&quot;margin:0px;margin-top:6px;text-align:center;&quot;&gt;&lt;b&gt;ChatRoomHandler&lt;/b&gt;&lt;/p&gt;&lt;hr&gt;&lt;p style=&quot;margin:0px;margin-left:8px;&quot;&gt;&lt;b&gt;- process_service_object()&lt;/b&gt;&lt;/p&gt;&lt;p style=&quot;margin:0px;margin-left:8px;&quot;&gt;&lt;b&gt;- process_encrypted_aes_key_response()&lt;/b&gt;&lt;/p&gt;&lt;p style=&quot;border-color: var(--border-color); margin: 0px 0px 0px 8px;&quot;&gt;&lt;b style=&quot;border-color: var(--border-color);&quot;&gt;- process_authenticator_packet()&lt;/b&gt;&lt;/p&gt;&lt;p style=&quot;margin:0px;margin-left:8px;&quot;&gt;&lt;b&gt;- process_service_symmetric_key_request()&lt;/b&gt;&lt;/p&gt;&lt;p style=&quot;margin:0px;margin-left:8px;&quot;&gt;&lt;b style=&quot;background-color: initial;&quot;&gt;- enter_chat_room()&lt;/b&gt;&lt;br&gt;&lt;/p&gt;&lt;p style=&quot;margin:0px;margin-left:8px;&quot;&gt;&lt;b style=&quot;background-color: initial;&quot;&gt;- handle_symmetric_key_request()&lt;/b&gt;&lt;/p&gt;&lt;p style=&quot;margin:0px;margin-left:8px;&quot;&gt;&lt;b style=&quot;background-color: initial;&quot;&gt;+ connect_to_service()&lt;/b&gt;&lt;/p&gt;&lt;p style=&quot;margin:0px;margin-left:8px;&quot;&gt;&lt;b style=&quot;background-color: initial;&quot;&gt;&lt;br&gt;&lt;/b&gt;&lt;/p&gt;&lt;p style=&quot;margin:0px;margin-left:8px;&quot;&gt;&lt;b style=&quot;background-color: initial;&quot;&gt;&lt;br&gt;&lt;/b&gt;&lt;/p&gt;&lt;p style=&quot;margin:0px;margin-left:8px;&quot;&gt;&lt;br&gt;&lt;/p&gt;" style="align=left;overflow=fill;html=1;dropTarget=0;whiteSpace=wrap;" parent="1" vertex="1">
          <mxGeometry x="1230" y="-1060" width="270" height="140" as="geometry" />
        </mxCell>
        <mxCell id="c523WHogVDrezJnr_vs4-14" value="" style="shape=component;jettyWidth=8;jettyHeight=4;" parent="c523WHogVDrezJnr_vs4-13" vertex="1">
          <mxGeometry x="1" width="20" height="20" relative="1" as="geometry">
            <mxPoint x="-24" y="4" as="offset" />
          </mxGeometry>
        </mxCell>
        <mxCell id="c523WHogVDrezJnr_vs4-15" value="" style="endArrow=diamondThin;endFill=1;endSize=24;html=1;rounded=0;exitX=0;exitY=0.5;exitDx=0;exitDy=0;" parent="1" source="c523WHogVDrezJnr_vs4-13" edge="1">
          <mxGeometry width="160" relative="1" as="geometry">
            <mxPoint x="1130" y="-1090" as="sourcePoint" />
            <mxPoint x="1290" y="-1090" as="targetPoint" />
            <Array as="points">
              <mxPoint x="1200" y="-990" />
              <mxPoint x="1200" y="-1090" />
            </Array>
          </mxGeometry>
        </mxCell>
        <mxCell id="c523WHogVDrezJnr_vs4-16" value="" style="endArrow=none;html=1;rounded=0;entryX=0;entryY=0.5;entryDx=0;entryDy=0;" parent="1" target="fb5ipnyISE7amrQCMdho-132" edge="1">
          <mxGeometry width="50" height="50" relative="1" as="geometry">
            <mxPoint x="1280" y="-1115" as="sourcePoint" />
            <mxPoint x="1310" y="-1165" as="targetPoint" />
            <Array as="points">
              <mxPoint x="1280" y="-1343" />
            </Array>
          </mxGeometry>
        </mxCell>
        <mxCell id="c523WHogVDrezJnr_vs4-17" value="" style="endArrow=none;html=1;rounded=0;entryX=-0.006;entryY=0.577;entryDx=0;entryDy=0;entryPerimeter=0;" parent="1" target="fb5ipnyISE7amrQCMdho-134" edge="1">
          <mxGeometry width="50" height="50" relative="1" as="geometry">
            <mxPoint x="1280" y="-1236" as="sourcePoint" />
            <mxPoint x="1330" y="-1285" as="targetPoint" />
          </mxGeometry>
        </mxCell>
        <mxCell id="c523WHogVDrezJnr_vs4-19" value="" style="endArrow=diamondThin;endFill=1;endSize=24;html=1;rounded=0;entryX=0.528;entryY=1.005;entryDx=0;entryDy=0;entryPerimeter=0;" parent="1" target="fb5ipnyISE7amrQCMdho-57" edge="1">
          <mxGeometry width="160" relative="1" as="geometry">
            <mxPoint x="540" y="-866.53" as="sourcePoint" />
            <mxPoint x="700" y="-866.53" as="targetPoint" />
            <Array as="points">
              <mxPoint x="678" y="-867" />
            </Array>
          </mxGeometry>
        </mxCell>
        <mxCell id="c523WHogVDrezJnr_vs4-20" value="" style="endArrow=none;html=1;rounded=0;exitX=1;exitY=0.5;exitDx=0;exitDy=0;" parent="1" source="fb5ipnyISE7amrQCMdho-91" edge="1">
          <mxGeometry width="50" height="50" relative="1" as="geometry">
            <mxPoint x="525" y="-816" as="sourcePoint" />
            <mxPoint x="575" y="-866" as="targetPoint" />
            <Array as="points">
              <mxPoint x="575" y="-750" />
            </Array>
          </mxGeometry>
        </mxCell>
        <mxCell id="S3v0s6BL-b8OaDAGnQlz-1" value="&lt;b&gt;protocol_constants&lt;/b&gt;" style="html=1;dropTarget=0;whiteSpace=wrap;" parent="1" vertex="1">
          <mxGeometry x="1350" y="-810" width="180" height="60" as="geometry" />
        </mxCell>
        <mxCell id="S3v0s6BL-b8OaDAGnQlz-2" value="" style="shape=module;jettyWidth=8;jettyHeight=4;" parent="S3v0s6BL-b8OaDAGnQlz-1" vertex="1">
          <mxGeometry x="1" width="20" height="20" relative="1" as="geometry">
            <mxPoint x="-27" y="7" as="offset" />
          </mxGeometry>
        </mxCell>
        <mxCell id="S3v0s6BL-b8OaDAGnQlz-3" value="&lt;b&gt;protocol_templates&lt;/b&gt;" style="html=1;dropTarget=0;whiteSpace=wrap;" parent="1" vertex="1">
          <mxGeometry x="1350" y="-740" width="180" height="60" as="geometry" />
        </mxCell>
        <mxCell id="S3v0s6BL-b8OaDAGnQlz-4" value="" style="shape=module;jettyWidth=8;jettyHeight=4;" parent="S3v0s6BL-b8OaDAGnQlz-3" vertex="1">
          <mxGeometry x="1" width="20" height="20" relative="1" as="geometry">
            <mxPoint x="-27" y="7" as="offset" />
          </mxGeometry>
        </mxCell>
      </root>
    </mxGraphModel>
  </diagram>
</mxfile>
